<svg width="21" height="20" viewBox="0 0 21 20" fill="none" xmlns="http://www.w3.org/2000/svg">
<path d="M2.5249 4.99984H4.19157M4.19157 4.99984H17.5249M4.19157 4.99984V16.6665C4.19157 17.1085 4.36716 17.5325 4.67972 17.845C4.99228 18.1576 5.41621 18.3332 5.85824 18.3332H14.1916C14.6336 18.3332 15.0575 18.1576 15.3701 17.845C15.6826 17.5325 15.8582 17.1085 15.8582 16.6665V4.99984H4.19157ZM6.69157 4.99984V3.33317C6.69157 2.89114 6.86716 2.46722 7.17972 2.15466C7.49229 1.8421 7.91621 1.6665 8.35824 1.6665H11.6916C12.1336 1.6665 12.5575 1.8421 12.8701 2.15466C13.1826 2.46722 13.3582 2.89114 13.3582 3.33317V4.99984M8.35824 9.1665V14.1665M11.6916 9.1665V14.1665" stroke="white" stroke-width="1.66667" stroke-linecap="round" stroke-linejoin="round"/>
</svg>
